<svg xmlns="http://www.w3.org/2000/svg" width="808" height="808" viewBox="0 0 808 808" version="1.1"><path d="M 82 378 L 82 520 94.500 520 L 107 520 107 455.500 L 107 391 159 391 L 211 391 211 455.500 L 211 520 223.500 520 L 236 520 236 378 L 236 236 159 236 L 82 236 82 378 M 262 378 L 262 520 275 520 L 288 520 288 455.500 L 288 391 352.500 391 L 417 391 417 313.500 L 417 236 404 236 L 391 236 391 300.468 L 391 364.935 364.750 365.218 C 350.313 365.373, 327.137 365.380, 313.250 365.233 L 288 364.966 288 300.483 L 288 236 275 236 L 262 236 262 378 M 443 378 L 443 520 507.530 520 L 572.060 520 571.780 507.250 L 571.500 494.500 519.750 494.241 L 468 493.982 468 442.491 L 468 391 520.030 391 L 572.060 391 571.780 378.250 L 571.500 365.500 519.750 365.241 L 468 364.982 468 313.491 L 468 262 520 262 L 572 262 572 249 L 572 236 507.500 236 L 443 236 443 378 M 598 300.500 L 598 365 623.500 365 L 649 365 649 378 L 649 391 623.500 391 L 598 391 598 455.500 L 598 520 610.500 520 L 623 520 623 468.500 L 623 417 636 417 L 649 417 649 404 L 649 391 662 391 L 675 391 675 404 L 675 417 688 417 L 701 417 701 468.500 L 701 520 713.500 520 L 726 520 726 455.500 L 726 391 700.500 391 L 675 391 675 378 L 675 365 700.500 365 L 726 365 726 300.500 L 726 236 713.500 236 L 701 236 701 288 L 701 340 688 340 L 675 340 675 352.500 L 675 365 662 365 L 649 365 649 352.500 L 649 340 636 340 L 623 340 623 288 L 623 236 610.500 236 L 598 236 598 300.500 M 107 313.500 L 107 365 159 365 L 211 365 211 313.500 L 211 262 159 262 L 107 262 107 313.500" stroke="none" fill="#008000" fill-rule="evenodd"/><path d="M 288 249 L 288 262 339.500 262 L 391 262 391 249 L 391 236 339.500 236 L 288 236 288 249" stroke="none" fill="#ffc0cb" fill-rule="evenodd"/><path d="M -0 404.001 L -0 808.002 404.250 807.751 L 808.500 807.500 808.751 403.750 L 809.002 0 404.501 0 L 0 0 -0 404.001 M 0.495 404.500 C 0.495 626.700, 0.610 717.451, 0.750 606.169 C 0.890 494.886, 0.890 313.086, 0.750 202.169 C 0.610 91.251, 0.495 182.300, 0.495 404.500 M 4 171.500 L 4 339 17 339 L 30 339 30 171.500 L 30 4 17 4 L 4 4 4 171.500 M 778 171.500 L 778 339 791 339 L 804 339 804 171.500 L 804 4 791 4 L 778 4 778 171.500 M 56 197.500 L 56 365 30 365 L 4 365 4 378 L 4 391 30 391 L 56 391 56 546 L 56 701 404 701 L 752 701 752 546 L 752 391 778 391 L 804 391 804 378 L 804 365 778 365 L 752 365 752 249 L 752 133 739.500 133 L 727 133 727 120 L 727 107 739.500 107 L 752 107 752 68.500 L 752 30 404 30 L 56 30 56 197.500 M 81 81.500 L 81 107 107 107 L 133 107 133 81.500 L 133 56 107 56 L 81 56 81 81.500 M 159 133 L 159 210 172 210 L 185 210 185 133 L 185 56 172 56 L 159 56 159 133 M 210.013 133 L 209.988 210 222.994 210 L 236 210 236 133 L 236 56 223.019 56 L 210.037 56 210.013 133 M 262 107.500 L 262 159 339.500 159 L 417 159 417 107.500 L 417 56 339.500 56 L 262 56 262 107.500 M 443 107.500 L 443 159 507.500 159 L 572 159 572 107.500 L 572 56 507.500 56 L 443 56 443 107.500 M 598 68.500 L 598 81 662.500 81 L 727 81 727 68.500 L 727 56 662.500 56 L 598 56 598 68.500 M 288 107 L 288 133 339.500 133 L 391 133 391 107 L 391 81 339.500 81 L 288 81 288 107 M 468.804 94.750 C 468.637 102.313, 468.626 114.013, 468.780 120.750 L 469.060 133 507.530 133 L 546 133 546 107 L 546 81 507.554 81 L 469.108 81 468.804 94.750 M 598 120 L 598 133 649.500 133 L 701 133 701 120 L 701 107 649.500 107 L 598 107 598 120 M 81 146 L 81 159 107 159 L 133 159 133 146 L 133 133 107 133 L 81 133 81 146 M 598 184.500 L 598 210 610.500 210 L 623 210 623 184.500 L 623 159 610.500 159 L 598 159 598 184.500 M 649 184.500 L 649 210 662 210 L 675 210 675 184.500 L 675 159 662 159 L 649 159 649 184.500 M 701 184.500 L 701 210 714 210 L 727 210 727 184.500 L 727 159 714 159 L 701 159 701 184.500 M 81 197.500 L 81 210 107 210 L 133 210 133 197.500 L 133 185 107 185 L 81 185 81 197.500 M 262 197.500 L 262 210 339.500 210 L 417 210 417 197.500 L 417 185 339.500 185 L 262 185 262 197.500 M 443 197.500 L 443 210 507.500 210 L 572 210 572 197.500 L 572 185 507.500 185 L 443 185 443 197.500 M 649 275 L 649 314 662 314 L 675 314 675 275 L 675 236 662 236 L 649 236 649 275 M 494.233 313.750 L 494.500 339.500 533 339.500 L 571.500 339.500 571.767 313.750 L 572.034 288 533 288 L 493.966 288 494.233 313.750 M 4 610.500 L 4 804 404 804 L 804 804 804 610.500 L 804 417 791 417 L 778 417 778 572 L 778 727 404 727 L 30 727 30 572 L 30 417 17 417 L 4 417 4 610.500 M 133 468.500 L 133 520 159 520 L 185 520 185 468.500 L 185 417 159 417 L 133 417 133 468.500 M 314 494.500 L 314 572 301 572 L 288 572 288 559 L 288 546 275 546 L 262 546 262 610.500 L 262 675 339.500 675 L 417 675 417 623.500 L 417 572 378.500 572 L 340 572 339.977 558.750 C 339.947 541.943, 339.948 471.428, 339.977 455.250 L 340 443 378.500 443 L 417 443 417 430 L 417 417 365.500 417 L 314 417 314 494.500 M 494.233 442.750 L 494.500 468.500 533 468.500 L 571.500 468.500 571.767 442.750 L 572.034 417 533 417 L 493.966 417 494.233 442.750 M 649 533 L 649 623 662 623 L 675 623 675 533 L 675 443 662 443 L 649 443 649 533 M 365.665 468.668 C 365.299 469.034, 365 474.883, 365 481.667 L 365 494 391.030 494 L 417.060 494 416.780 481.250 L 416.500 468.500 391.415 468.251 C 377.619 468.115, 366.031 468.302, 365.665 468.668 M 365 533 L 365 546 391 546 L 417 546 417 533 L 417 520 391 520 L 365 520 365 533 M 81.220 558.750 L 81.500 571.500 145.750 571.757 L 210 572.015 210.022 584.757 C 210.034 591.766, 210.025 614.938, 210 636.250 L 209.956 675 222.978 675 L 236 675 236 610.500 L 236 546 158.470 546 L 80.940 546 81.220 558.750 M 443 584.500 L 443 623 533 623 L 623 623 623 584.500 L 623 546 610.517 546 L 598.034 546 597.767 571.750 L 597.500 597.500 533.250 597.757 L 469 598.015 469 585.007 L 469 572 520.500 572 L 572 572 572 559 L 572 546 507.500 546 L 443 546 443 584.500 M 701 584.500 L 701 623 714 623 L 727 623 727 584.500 L 727 546 714 546 L 701 546 701 584.500 M 313.250 597.767 L 288 598.034 288 623.517 L 288 649 339.500 649 L 391 649 391 623.532 L 391 598.065 364.750 597.782 C 350.313 597.627, 327.137 597.620, 313.250 597.767 M 81 610.500 L 81 623 94 623 L 107 623 107 636 L 107 649 94 649 L 81 649 81 662 L 81 675 133 675 L 185 675 185 636.500 L 185 598 172 598 L 159 598 159 623.500 L 159 649 146 649 L 133 649 133 623.500 L 133 598 107 598 L 81 598 81 610.500 M 443 662 L 443 675 507.500 675 L 572 675 572 662 L 572 649 507.500 649 L 443 649 443 662 M 598 662 L 598 675 662.500 675 L 727 675 727 662 L 727 649 662.500 649 L 598 649 598 662" stroke="none" fill="#0404f8" fill-rule="evenodd"/><path d="M 4 171.500 L 4 339 17 339 L 30 339 30 171.500 L 30 4 17 4 L 4 4 4 171.500 M 778 171.500 L 778 339 791 339 L 804 339 804 171.500 L 804 4 791 4 L 778 4 778 171.500 M 56 197.500 L 56 365 30 365 L 4 365 4 378 L 4 391 30 391 L 56 391 56 546 L 56 701 404 701 L 752 701 752 546 L 752 391 778 391 L 804 391 804 378 L 804 365 778 365 L 752 365 752 249 L 752 133 739.500 133 L 727 133 727 120 L 727 107 739.500 107 L 752 107 752 68.500 L 752 30 404 30 L 56 30 56 197.500 M 81 81.500 L 81 107 107 107 L 133 107 133 81.500 L 133 56 107 56 L 81 56 81 81.500 M 159 133 L 159 210 172 210 L 185 210 185 133 L 185 56 172 56 L 159 56 159 133 M 210.013 133 L 209.988 210 222.994 210 L 236 210 236 133 L 236 56 223.019 56 L 210.037 56 210.013 133 M 262 107.500 L 262 159 339.500 159 L 417 159 417 107.500 L 417 56 339.500 56 L 262 56 262 107.500 M 443 107.500 L 443 159 507.500 159 L 572 159 572 107.500 L 572 56 507.500 56 L 443 56 443 107.500 M 598 68.500 L 598 81 662.500 81 L 727 81 727 68.500 L 727 56 662.500 56 L 598 56 598 68.500 M 288 107 L 288 133 339.500 133 L 391 133 391 107 L 391 81 339.500 81 L 288 81 288 107 M 468.804 94.750 C 468.637 102.313, 468.626 114.013, 468.780 120.750 L 469.060 133 507.530 133 L 546 133 546 107 L 546 81 507.554 81 L 469.108 81 468.804 94.750 M 598 120 L 598 133 649.500 133 L 701 133 701 120 L 701 107 649.500 107 L 598 107 598 120 M 81 146 L 81 159 107 159 L 133 159 133 146 L 133 133 107 133 L 81 133 81 146 M 598 184.500 L 598 210 610.500 210 L 623 210 623 184.500 L 623 159 610.500 159 L 598 159 598 184.500 M 649 184.500 L 649 210 662 210 L 675 210 675 184.500 L 675 159 662 159 L 649 159 649 184.500 M 701 184.500 L 701 210 714 210 L 727 210 727 184.500 L 727 159 714 159 L 701 159 701 184.500 M 81 197.500 L 81 210 107 210 L 133 210 133 197.500 L 133 185 107 185 L 81 185 81 197.500 M 262 197.500 L 262 210 339.500 210 L 417 210 417 197.500 L 417 185 339.500 185 L 262 185 262 197.500 M 443 197.500 L 443 210 507.500 210 L 572 210 572 197.500 L 572 185 507.500 185 L 443 185 443 197.500 M 82 378 L 82 520 94.500 520 L 107 520 107 455.500 L 107 391 159 391 L 211 391 211 455.500 L 211 520 223.500 520 L 236 520 236 378 L 236 236 159 236 L 82 236 82 378 M 262 378 L 262 520 275 520 L 288 520 288 455.500 L 288 391 352.500 391 L 417 391 417 313.500 L 417 236 339.500 236 L 262 236 262 378 M 443 378 L 443 520 507.530 520 L 572.060 520 571.780 507.250 L 571.500 494.500 519.750 494.241 L 468 493.982 468 442.491 L 468 391 520.030 391 L 572.060 391 571.780 378.250 L 571.500 365.500 519.750 365.241 L 468 364.982 468 313.491 L 468 262 520 262 L 572 262 572 249 L 572 236 507.500 236 L 443 236 443 378 M 598 300.500 L 598 365 623.500 365 L 649 365 649 378 L 649 391 623.500 391 L 598 391 598 455.500 L 598 520 610.500 520 L 623 520 623 468.500 L 623 417 636 417 L 649 417 649 404 L 649 391 662 391 L 675 391 675 404 L 675 417 688 417 L 701 417 701 468.500 L 701 520 713.500 520 L 726 520 726 455.500 L 726 391 700.500 391 L 675 391 675 378 L 675 365 700.500 365 L 726 365 726 300.500 L 726 236 713.500 236 L 701 236 701 288 L 701 340 688 340 L 675 340 675 352.500 L 675 365 662 365 L 649 365 649 352.500 L 649 340 636 340 L 623 340 623 288 L 623 236 610.500 236 L 598 236 598 300.500 M 649 275 L 649 314 662 314 L 675 314 675 275 L 675 236 662 236 L 649 236 649 275 M 107 313.500 L 107 365 159 365 L 211 365 211 313.500 L 211 262 159 262 L 107 262 107 313.500 M 288 313.468 L 288 364.935 314.250 365.218 C 328.688 365.373, 351.863 365.380, 365.750 365.233 L 391 364.966 391 313.483 L 391 262 339.500 262 L 288 262 288 313.468 M 494.233 313.750 L 494.500 339.500 533 339.500 L 571.500 339.500 571.767 313.750 L 572.034 288 533 288 L 493.966 288 494.233 313.750 M 4 610.500 L 4 804 404 804 L 804 804 804 610.500 L 804 417 791 417 L 778 417 778 572 L 778 727 404 727 L 30 727 30 572 L 30 417 17 417 L 4 417 4 610.500 M 133 468.500 L 133 520 159 520 L 185 520 185 468.500 L 185 417 159 417 L 133 417 133 468.500 M 314 494.500 L 314 572 301 572 L 288 572 288 559 L 288 546 275 546 L 262 546 262 610.500 L 262 675 339.500 675 L 417 675 417 623.500 L 417 572 378.500 572 L 340 572 339.977 558.750 C 339.947 541.943, 339.948 471.428, 339.977 455.250 L 340 443 378.500 443 L 417 443 417 430 L 417 417 365.500 417 L 314 417 314 494.500 M 494.233 442.750 L 494.500 468.500 533 468.500 L 571.500 468.500 571.767 442.750 L 572.034 417 533 417 L 493.966 417 494.233 442.750 M 649 533 L 649 623 662 623 L 675 623 675 533 L 675 443 662 443 L 649 443 649 533 M 365.665 468.668 C 365.299 469.034, 365 474.883, 365 481.667 L 365 494 391.030 494 L 417.060 494 416.780 481.250 L 416.500 468.500 391.415 468.251 C 377.619 468.115, 366.031 468.302, 365.665 468.668 M 365 533 L 365 546 391 546 L 417 546 417 533 L 417 520 391 520 L 365 520 365 533 M 81.220 558.750 L 81.500 571.500 145.750 571.757 L 210 572.015 210.022 584.757 C 210.034 591.766, 210.025 614.938, 210 636.250 L 209.956 675 222.978 675 L 236 675 236 610.500 L 236 546 158.470 546 L 80.940 546 81.220 558.750 M 443 584.500 L 443 623 533 623 L 623 623 623 584.500 L 623 546 610.517 546 L 598.034 546 597.767 571.750 L 597.500 597.500 533.250 597.757 L 469 598.015 469 585.007 L 469 572 520.500 572 L 572 572 572 559 L 572 546 507.500 546 L 443 546 443 584.500 M 701 584.500 L 701 623 714 623 L 727 623 727 584.500 L 727 546 714 546 L 701 546 701 584.500 M 313.250 597.767 L 288 598.034 288 623.517 L 288 649 339.500 649 L 391 649 391 623.532 L 391 598.065 364.750 597.782 C 350.313 597.627, 327.137 597.620, 313.250 597.767 M 81 610.500 L 81 623 94 623 L 107 623 107 636 L 107 649 94 649 L 81 649 81 662 L 81 675 133 675 L 185 675 185 636.500 L 185 598 172 598 L 159 598 159 623.500 L 159 649 146 649 L 133 649 133 623.500 L 133 598 107 598 L 81 598 81 610.500 M 443 662 L 443 675 507.500 675 L 572 675 572 662 L 572 649 507.500 649 L 443 649 443 662 M 598 662 L 598 675 662.500 675 L 727 675 727 662 L 727 649 662.500 649 L 598 649 598 662" stroke="none" fill="#041605" fill-rule="evenodd"/></svg>